<svg width="24" height="24" viewBox="0 0 24 24" fill="none" xmlns="http://www.w3.org/2000/svg">
<g id="fi-rr-car" clip-path="url(#clip0_302_222)">
<path id="Vector" d="M20.8999 4.29112C20.5477 3.32734 19.9081 2.49492 19.0675 1.90636C18.227 1.31779 17.226 1.00147 16.1999 1.00012H7.79988C6.77376 1.00147 5.77279 1.31779 4.93224 1.90636C4.09169 2.49492 3.45209 3.32734 3.09988 4.29112L0.399883 11.7181C0.134332 12.4496 -0.0010468 13.2219 -0.000117316 14.0001V15.0001C0.00166701 15.7729 0.183315 16.5347 0.530448 17.2251C0.87758 17.9156 1.38067 18.5157 1.99988 18.9781C1.99988 18.9861 1.99988 18.9921 1.99988 19.0001V21.0001C1.99988 21.7958 2.31595 22.5588 2.87856 23.1214C3.44117 23.6841 4.20423 24.0001 4.99988 24.0001C5.79553 24.0001 6.55859 23.6841 7.1212 23.1214C7.68381 22.5588 7.99988 21.7958 7.99988 21.0001V20.0001H15.9999V21.0001C15.9999 21.7958 16.316 22.5588 16.8786 23.1214C17.4412 23.6841 18.2042 24.0001 18.9999 24.0001C19.7955 24.0001 20.5586 23.6841 21.1212 23.1214C21.6838 22.5588 21.9999 21.7958 21.9999 21.0001V19.0001C21.9999 18.9921 21.9999 18.9861 21.9999 18.9781C22.6191 18.5157 23.1222 17.9156 23.4693 17.2251C23.8165 16.5347 23.9981 15.7729 23.9999 15.0001V14.0001C24.0009 13.2223 23.8655 12.4502 23.5999 11.7191L20.8999 4.29112ZM4.98188 4.97512C5.19332 4.39729 5.57682 3.89817 6.08069 3.54503C6.58456 3.19189 7.18459 3.00171 7.79988 3.00012H16.1999C16.8155 3.0013 17.416 3.19129 17.9203 3.54446C18.4245 3.89763 18.8083 4.39697 19.0199 4.97512L21.2079 11.0001H2.79088L4.98188 4.97512ZM5.99988 21.0001C5.99988 21.2653 5.89453 21.5197 5.70699 21.7072C5.51945 21.8948 5.2651 22.0001 4.99988 22.0001C4.73467 22.0001 4.48031 21.8948 4.29278 21.7072C4.10524 21.5197 3.99988 21.2653 3.99988 21.0001V19.9001C4.32901 19.967 4.66404 20.0005 4.99988 20.0001H5.99988V21.0001ZM19.9999 21.0001C19.9999 21.2653 19.8945 21.5197 19.707 21.7072C19.5195 21.8948 19.2651 22.0001 18.9999 22.0001C18.7347 22.0001 18.4803 21.8948 18.2928 21.7072C18.1052 21.5197 17.9999 21.2653 17.9999 21.0001V20.0001H18.9999C19.3357 20.0005 19.6708 19.967 19.9999 19.9001V21.0001ZM21.9999 15.0001C21.9999 15.7958 21.6838 16.5588 21.1212 17.1214C20.5586 17.6841 19.7955 18.0001 18.9999 18.0001H4.99988C4.20423 18.0001 3.44117 17.6841 2.87856 17.1214C2.31595 16.5588 1.99988 15.7958 1.99988 15.0001V14.0001C2.00396 13.6634 2.04453 13.3281 2.12088 13.0001H3.99988V14.0001C3.99988 14.2653 4.10524 14.5197 4.29278 14.7072C4.48031 14.8948 4.73467 15.0001 4.99988 15.0001C5.2651 15.0001 5.51945 14.8948 5.70699 14.7072C5.89453 14.5197 5.99988 14.2653 5.99988 14.0001V13.0001H17.9999V14.0001C17.9999 14.2653 18.1052 14.5197 18.2928 14.7072C18.4803 14.8948 18.7347 15.0001 18.9999 15.0001C19.2651 15.0001 19.5195 14.8948 19.707 14.7072C19.8945 14.5197 19.9999 14.2653 19.9999 14.0001V13.0001H21.8789C21.9553 13.3281 21.9959 13.6634 21.9999 14.0001V15.0001Z" fill="#A2A2B5"/>
</g>
<defs>
<clipPath id="clip0_302_222">
<rect width="24" height="24" fill="white"/>
</clipPath>
</defs>
</svg>
