<svg width="18" height="18" viewBox="0 0 18 18" fill="none" xmlns="http://www.w3.org/2000/svg">
<g id="Icons/Credit Cards" clip-path="url(#clip0_304_100)">
<path id="Vector" d="M4.12506 10.9501C4.74638 10.9501 5.25006 10.4465 5.25006 9.82513C5.25006 9.20381 4.74638 8.70013 4.12506 8.70013C3.50374 8.70013 3.00006 9.20381 3.00006 9.82513C3.00006 10.4465 3.50374 10.9501 4.12506 10.9501Z" fill="#A2A2B5"/>
<path id="Vector_2" d="M14.25 0.450012H3.75C2.7558 0.451203 1.80267 0.846674 1.09966 1.54968C0.396661 2.25268 0.00119089 3.20582 0 4.20001L0 10.2C0.00119089 11.1942 0.396661 12.1473 1.09966 12.8503C1.80267 13.5534 2.7558 13.9488 3.75 13.95H14.25C15.2442 13.9488 16.1973 13.5534 16.9003 12.8503C17.6033 12.1473 17.9988 11.1942 18 10.2V4.20001C17.9988 3.20582 17.6033 2.25268 16.9003 1.54968C16.1973 0.846674 15.2442 0.451203 14.25 0.450012ZM3.75 1.95001H14.25C14.8467 1.95001 15.419 2.18707 15.841 2.60902C16.2629 3.03098 16.5 3.60328 16.5 4.20001H1.5C1.5 3.60328 1.73705 3.03098 2.15901 2.60902C2.58097 2.18707 3.15326 1.95001 3.75 1.95001ZM14.25 12.45H3.75C3.15326 12.45 2.58097 12.213 2.15901 11.791C1.73705 11.369 1.5 10.7968 1.5 10.2V5.70001H16.5V10.2C16.5 10.7968 16.2629 11.369 15.841 11.791C15.419 12.213 14.8467 12.45 14.25 12.45Z" fill="#A2A2B5"/>
<path id="Vector_3" fill-rule="evenodd" clip-rule="evenodd" d="M18 14.25L16.5 14.85C16.5 15.4468 16.2629 15.419 15.841 15.841C15.419 16.2629 14.8467 16.5 14.25 16.5H3.75C3.15326 16.5 2.58097 16.2629 2.15901 15.841C1.73705 15.419 1.5 15.4468 1.5 14.85L0 14.25C0.00119089 15.2442 0.396661 16.1973 1.09966 16.9003C1.80267 17.6033 2.7558 17.9988 3.75 18H14.25C15.2442 17.9988 16.1973 17.6033 16.9003 16.9003C17.6033 16.1973 17.9988 15.2442 18 14.25Z" fill="#A2A2B5"/>
</g>
<defs>
<clipPath id="clip0_304_100">
<rect width="18" height="18" fill="white"/>
</clipPath>
</defs>
</svg>
